<svg xmlns="http://www.w3.org/2000/svg" width="900" height="132" viewBox="0 0 900 132" role="img" aria-labelledby="title desc">
<title id="title">03 · video quality gates</title>
<desc id="desc">2,486 raw findings → 40 genuine defects → 0 blockers. detector calibration first · content correction second. completed case study.</desc>
<g font-family="-apple-system,BlinkMacSystemFont,'Segoe UI',Helvetica,Arial,sans-serif">
<rect x="0" y="0" width="900" height="132" rx="18" fill="#F8FAFC"/>
<path d="M 30 0 V 132 M 60 0 V 132 M 90 0 V 132 M 120 0 V 132 M 150 0 V 132 M 180 0 V 132 M 210 0 V 132 M 240 0 V 132 M 270 0 V 132 M 300 0 V 132 M 330 0 V 132 M 360 0 V 132 M 390 0 V 132 M 420 0 V 132 M 450 0 V 132 M 480 0 V 132 M 510 0 V 132 M 540 0 V 132 M 570 0 V 132 M 600 0 V 132 M 630 0 V 132 M 660 0 V 132 M 690 0 V 132 M 720 0 V 132 M 750 0 V 132 M 780 0 V 132 M 810 0 V 132 M 840 0 V 132 M 870 0 V 132 M 0 30 H 900 M 0 60 H 900 M 0 90 H 900 M 0 120 H 900" stroke="#E2E8F0" stroke-width="1" fill="none" stroke-linecap="butt" stroke-linejoin="round" opacity="0.35"/>
<rect x="0" y="22" width="5" height="88" rx="2" fill="#036D9E"/>
<text x="36" y="40" fill="#475569" font-size="11" font-weight="700" text-anchor="start" letter-spacing="1.6">03 · VIDEO QUALITY GATES</text>
<rect x="689.2" y="24" width="174.8" height="22" rx="11" fill="#F1F5F9" stroke="#CBD5E1" stroke-width="1"/>
<circle cx="700.2" cy="35" r="3" fill="#036D9E"/>
<text x="708.2" y="39" fill="#475569" font-size="11" font-weight="600" text-anchor="start" font-family="ui-monospace,SFMono-Regular,Menlo,Consolas,monospace">completed case study</text>
<text x="36" y="80" fill="#036D9E" font-size="24" font-weight="700" text-anchor="start">2,486 raw findings → 40 genuine defects → 0 blockers</text>
<text x="36" y="106" fill="#475569" font-size="13" font-weight="400" text-anchor="start">detector calibration first · content correction second</text>
<text x="864" y="108" fill="#59677B" font-size="11.5" font-weight="400" text-anchor="end" font-family="ui-monospace,SFMono-Regular,Menlo,Consolas,monospace">open case study →</text>
</g>
</svg>
